8888888888                888      8888888888                       
888                       888      888                              
888                       888      888                              
8888888  .d88b.   .d88b.  888      8888888 888d888 .d88b.   .d88b.  
888     d8P  Y8b d8P  Y8b 888      888     888P"  d8P  Y8b d8P  Y8b 
888     88888888 88888888 888      888     888    88888888 88888888 
888     Y8b.     Y8b.     888      888     888    Y8b.     Y8b.     
888      "Y8888   "Y8888  888      888     888     "Y8888   "Y8888  

Genre:Action | Adventure | Sci-Fi
Language:English
IMDb: 
http://www.imdb.com/title/tt0848228
Source:26K Thanks!
Encoder:Tony

Format : AVI
Format/Info : Audio Video Interleave
File size : 1.21 GiB
Duration : 2h 11mn
Overall bit rate : 1 314 Kbps

Video
ID : 0
Format : MPEG-4 Visual
Format profile : Advanced Simple@L5
Format settings, BVOP : 1
Format settings, QPel : No
Format settings, GMC : No warppoints
Format settings, Matrix : Default (H.263)
Codec ID : XVID
Codec ID/Hint : XviD
Duration : 2h 11mn
Bit rate : 1 142 Kbps
Width : 624 pixels
Height : 232 pixels
Display aspect ratio : 2.690
Frame rate : 30.000 fps
Color space : YUV
Chroma subsampling : 4:2:0
Bit depth : 8 bits
Scan type : Progressive
Compression mode : Lossy
Bits/(Pixel*Frame) : 0.263
Stream size : 1.05 GiB (87%)
Writing library : XviD 1.2.1 (UTC 2008-12-04)

Audio
ID : 1
Format : AC-3
Format/Info : Audio Coding 3
Mode extension : CM (complete main)
Codec ID : 2000
Duration : 2h 11mn
Bit rate mode : Constant
Bit rate : 160 Kbps
Channel(s) : 2 channels
Channel positions : Front: L R
Sampling rate : 48.0 KHz
Bit depth : 16 bits
Compression mode : Lossy
Stream size : 151 MiB (12%)
Alignment : Aligned on interleaves
Interleave, duration : 33 ms (1.00 video frame)
Interleave, preload duration : 512 ms


Plot:
Nick Fury of S.H.I.E.L.D. brings together a team of super humans to form The Avengers to help save the Earth from Loki and his army.


Screen Shots:
 
http://img10.imageshack.us/img10/1356/vlcsnap2012042811h32m26.png
 
http://img839.imageshack.us/img839/2148/vlcsnap2012042811h32m48.png
 
http://img39.imageshack.us/img39/4395/vlcsnap2012042811h32m57.png
 
http://img585.imageshack.us/img585/4072/vlcsnap2012042811h33m59.png
 
http://img404.imageshack.us/img404/5756/vlcsnap2012042811h34m12.png
 
http://img11.imageshack.us/img11/4291/vlcsnap2012042811h34m53.png


8888888888                888      8888888888                       
888                       888      888                              
888                       888      888                              
8888888  .d88b.   .d88b.  888      8888888 888d888 .d88b.   .d88b.  
888     d8P  Y8b d8P  Y8b 888      888     888P"  d8P  Y8b d8P  Y8b 
888     88888888 88888888 888      888     888    88888888 88888888 
888     Y8b.     Y8b.     888      888     888    Y8b.     Y8b.     
888      "Y8888   "Y8888  888      888     888     "Y8888   "Y8888  